<svg xmlns="http://www.w3.org/2000/svg" viewBox="0 0 1600 900" fill="none">
  <defs>
    <linearGradient id="paper" x1="800" y1="0" x2="800" y2="900" gradientUnits="userSpaceOnUse">
      <stop stop-color="#24170F"/>
      <stop offset="0.08" stop-color="#4D3523"/>
      <stop offset="0.18" stop-color="#B5905A"/>
      <stop offset="0.5" stop-color="#D0B07C"/>
      <stop offset="0.82" stop-color="#A07C4F"/>
      <stop offset="1" stop-color="#2B1C12"/>
    </linearGradient>
    <linearGradient id="parchmentCore" x1="800" y1="72" x2="800" y2="828" gradientUnits="userSpaceOnUse">
      <stop stop-color="#D7BE91"/>
      <stop offset="0.5" stop-color="#C8A774"/>
      <stop offset="1" stop-color="#B58D59"/>
    </linearGradient>
    <radialGradient id="centerLight" cx="0" cy="0" r="1" gradientUnits="userSpaceOnUse" gradientTransform="translate(782 430) rotate(90) scale(400 600)">
      <stop stop-color="#F6E2BA" stop-opacity="0.42"/>
      <stop offset="0.6" stop-color="#F6E2BA" stop-opacity="0.12"/>
      <stop offset="1" stop-color="#F6E2BA" stop-opacity="0"/>
    </radialGradient>
    <linearGradient id="landMass" x1="788" y1="120" x2="788" y2="812" gradientUnits="userSpaceOnUse">
      <stop stop-color="#786645"/>
      <stop offset="0.4" stop-color="#6B6547"/>
      <stop offset="0.68" stop-color="#776B4A"/>
      <stop offset="1" stop-color="#5E4B35"/>
    </linearGradient>
    <linearGradient id="plainLight" x1="760" y1="310" x2="760" y2="790" gradientUnits="userSpaceOnUse">
      <stop stop-color="#A18F63" stop-opacity="0.72"/>
      <stop offset="1" stop-color="#7A6C4F" stop-opacity="0.28"/>
    </linearGradient>
    <linearGradient id="marsh" x1="1010" y1="458" x2="1208" y2="714" gradientUnits="userSpaceOnUse">
      <stop stop-color="#8E9E7E" stop-opacity="0.46"/>
      <stop offset="1" stop-color="#5D6A59" stop-opacity="0.14"/>
    </linearGradient>
    <linearGradient id="mountainBody" x1="776" y1="186" x2="776" y2="780" gradientUnits="userSpaceOnUse">
      <stop stop-color="#6A5945"/>
      <stop offset="0.46" stop-color="#43382C"/>
      <stop offset="1" stop-color="#261F19"/>
    </linearGradient>
    <linearGradient id="coastSea" x1="1320" y1="124" x2="1510" y2="772" gradientUnits="userSpaceOnUse">
      <stop stop-color="#355267" stop-opacity="0.9"/>
      <stop offset="0.54" stop-color="#20374A" stop-opacity="0.94"/>
      <stop offset="1" stop-color="#10222E" stop-opacity="0.98"/>
    </linearGradient>
    <linearGradient id="lowerSea" x1="996" y1="764" x2="996" y2="900" gradientUnits="userSpaceOnUse">
      <stop stop-color="#41515C" stop-opacity="0.14"/>
      <stop offset="1" stop-color="#0E1821" stop-opacity="0.72"/>
    </linearGradient>
    <filter id="paperNoise" x="-10%" y="-10%" width="120%" height="120%">
      <feTurbulence type="fractalNoise" baseFrequency="0.95" numOctaves="2" seed="8" result="noise"/>
      <feColorMatrix in="noise" type="saturate" values="0"/>
      <feComponentTransfer>
        <feFuncA type="table" tableValues="0 0.06"/>
      </feComponentTransfer>
    </filter>
    <filter id="softBlur" x="-10%" y="-10%" width="120%" height="120%">
      <feGaussianBlur stdDeviation="8"/>
    </filter>
    <filter id="ridgeBlur" x="-10%" y="-10%" width="120%" height="120%">
      <feGaussianBlur stdDeviation="3"/>
    </filter>
    <clipPath id="landClip">
      <path d="M120 130L286 98L626 94L1018 114L1284 138L1452 204L1492 310L1468 470L1482 698L1388 776L1070 836L786 842L438 820L216 770L122 630L100 356L120 130Z"/>
    </clipPath>
    <pattern id="grain" width="140" height="140" patternUnits="userSpaceOnUse">
      <rect width="140" height="140" fill="transparent"/>
      <circle cx="18" cy="22" r="1.2" fill="#FFF3D8" fill-opacity="0.18"/>
      <circle cx="84" cy="32" r="0.8" fill="#3A2A1A" fill-opacity="0.14"/>
      <circle cx="44" cy="92" r="1.4" fill="#FFF3D8" fill-opacity="0.12"/>
      <circle cx="112" cy="88" r="0.9" fill="#4A3722" fill-opacity="0.12"/>
      <circle cx="62" cy="126" r="1.1" fill="#FFF3D8" fill-opacity="0.14"/>
      <path d="M0 60H140" stroke="#3F2D1E" stroke-opacity="0.04"/>
      <path d="M56 0V140" stroke="#FFF3D8" stroke-opacity="0.05"/>
    </pattern>
    <pattern id="contours" width="160" height="120" patternUnits="userSpaceOnUse" patternTransform="rotate(-8)">
      <path d="M-10 32C26 12 60 12 96 32C126 48 160 48 194 26" stroke="#F8E7C2" stroke-opacity="0.08" stroke-width="1.4"/>
      <path d="M-12 66C30 44 66 44 102 64C130 80 160 82 196 56" stroke="#3B2B1C" stroke-opacity="0.06" stroke-width="1.2"/>
      <path d="M-8 98C24 82 58 80 94 96C124 110 160 112 194 94" stroke="#F8E7C2" stroke-opacity="0.06" stroke-width="1.1"/>
    </pattern>
  </defs>

  <rect width="1600" height="900" fill="#120C08"/>
  <rect x="18" y="18" width="1564" height="864" rx="30" fill="url(#paper)"/>
  <rect x="52" y="52" width="1496" height="796" rx="24" fill="url(#parchmentCore)"/>
  <rect x="52" y="52" width="1496" height="796" rx="24" fill="url(#centerLight)"/>
  <rect x="52" y="52" width="1496" height="796" rx="24" fill="url(#grain)" opacity="0.54"/>
  <rect x="52" y="52" width="1496" height="796" rx="24" filter="url(#paperNoise)" opacity="0.52"/>

  <path d="M120 130L286 98L626 94L1018 114L1284 138L1452 204L1492 310L1468 470L1482 698L1388 776L1070 836L786 842L438 820L216 770L122 630L100 356L120 130Z" fill="url(#landMass)" stroke="#F0D29B" stroke-opacity="0.52" stroke-width="5"/>
  <path d="M1284 138L1452 204L1492 310L1468 470L1482 698L1388 776L1510 790L1600 746V112L1498 102L1284 138Z" fill="url(#coastSea)"/>
  <path d="M944 760L1070 836H1600V900H760L944 760Z" fill="url(#lowerSea)"/>

  <g clip-path="url(#landClip)">
    <path d="M146 594C290 496 442 474 612 504C702 520 796 574 898 584C1044 598 1178 506 1300 528C1388 544 1450 620 1492 724L1492 842H1098L932 760C830 718 722 702 632 684C516 660 416 646 288 676C210 694 158 688 108 662L146 594Z" fill="url(#plainLight)" opacity="0.9"/>
    <path d="M238 512C332 470 434 452 544 468C622 480 680 520 746 516C804 514 860 474 920 464C996 450 1100 468 1198 468C1288 468 1364 446 1450 440L1492 582C1398 560 1322 560 1246 576C1160 594 1106 640 1028 654C946 668 862 648 786 640C696 632 624 644 544 620C442 592 344 576 242 598L238 512Z" fill="#A6AA75" opacity="0.28"/>
    <path d="M118 320C248 266 384 246 520 256C630 264 720 286 836 284C950 280 1084 230 1218 226C1324 224 1418 248 1496 292V112H118V320Z" fill="#91825B" opacity="0.16"/>
    <path d="M786 510C844 492 914 488 974 502C1032 516 1102 556 1152 560C1218 566 1278 542 1332 548C1376 554 1410 576 1448 612C1388 626 1340 648 1288 658C1216 670 1150 670 1094 656C1012 640 958 606 890 602C842 600 796 610 748 628C768 588 772 552 786 510Z" fill="url(#marsh)" opacity="0.62"/>
    <path d="M904 564C948 550 992 552 1034 564C1082 580 1126 614 1172 620C1222 626 1272 614 1322 624C1360 632 1392 654 1424 686C1378 696 1342 714 1298 722C1240 732 1190 730 1144 720C1082 706 1034 678 980 674C942 672 906 678 870 692C882 664 890 634 904 564Z" fill="url(#marsh)" opacity="0.38"/>
    <rect x="108" y="108" width="1396" height="734" fill="url(#contours)" opacity="0.72"/>

    <g opacity="0.9">
      <path d="M192 258C250 220 308 212 364 244C420 276 438 338 420 406C396 494 358 552 296 626C260 670 222 690 166 694C212 618 250 560 278 498C312 422 324 370 314 314C304 278 274 258 192 258Z" fill="url(#mountainBody)"/>
      <path d="M192 258C250 220 308 212 364 244C420 276 438 338 420 406C396 494 358 552 296 626C260 670 222 690 166 694" stroke="#2A2119" stroke-width="22" stroke-linecap="round" stroke-linejoin="round"/>
      <path d="M214 270C262 240 314 238 350 262C398 296 406 350 392 410C372 492 332 556 268 636" stroke="#D1BC95" stroke-opacity="0.3" stroke-width="6" stroke-linecap="round"/>

      <path d="M466 244C554 188 652 176 742 194C828 212 904 246 980 246C1052 246 1122 214 1192 212C1246 210 1308 230 1362 264C1310 280 1266 306 1212 326C1130 356 1056 360 962 348C880 338 810 302 724 304C634 304 566 354 494 386C510 330 518 292 466 244Z" fill="url(#mountainBody)"/>
      <path d="M466 244C554 188 652 176 742 194C828 212 904 246 980 246C1052 246 1122 214 1192 212C1246 210 1308 230 1362 264" stroke="#2D241C" stroke-width="20" stroke-linecap="round" stroke-linejoin="round"/>
      <path d="M508 244C584 210 650 208 734 228C824 248 896 282 978 282C1060 282 1122 256 1182 254C1230 252 1278 264 1322 290" stroke="#D6C29D" stroke-opacity="0.28" stroke-width="6" stroke-linecap="round"/>

      <path d="M508 396C564 360 638 350 706 368C794 390 858 444 948 448C1046 454 1142 386 1248 382C1338 378 1410 416 1484 480C1396 494 1328 532 1248 552C1162 574 1078 572 988 562C884 552 810 506 734 504C662 500 598 534 530 560C558 512 550 454 508 396Z" fill="url(#mountainBody)"/>
      <path d="M508 396C564 360 638 350 706 368C794 390 858 444 948 448C1046 454 1142 386 1248 382C1338 378 1410 416 1484 480" stroke="#2C241C" stroke-width="18" stroke-linecap="round" stroke-linejoin="round"/>
      <path d="M548 400C610 376 668 374 734 396C808 420 880 468 962 472C1052 476 1142 426 1232 424C1310 422 1376 442 1430 476" stroke="#D3C09B" stroke-opacity="0.28" stroke-width="6" stroke-linecap="round"/>

      <path d="M164 660C270 598 394 590 496 620C590 648 664 708 760 714C888 722 1026 664 1138 680C1230 692 1314 736 1374 806L1204 852H406L164 660Z" fill="url(#mountainBody)" opacity="0.66"/>
      <path d="M164 660C270 598 394 590 496 620C590 648 664 708 760 714C888 722 1026 664 1138 680C1230 692 1314 736 1374 806" stroke="#2B221A" stroke-width="18" stroke-linecap="round" stroke-linejoin="round"/>
      <path d="M212 656C300 618 394 618 486 646C584 676 666 734 764 740C882 748 1000 706 1118 714C1202 720 1272 750 1320 792" stroke="#D1BE97" stroke-opacity="0.28" stroke-width="6" stroke-linecap="round"/>
    </g>

    <g opacity="0.44">
      <path d="M176 596C266 568 348 560 454 566C602 576 742 620 888 620C1034 620 1134 586 1278 588C1350 590 1412 600 1458 606" stroke="#99B7C8" stroke-width="8" stroke-linecap="round"/>
      <path d="M714 468C756 490 790 522 832 538C874 554 928 556 978 552C1030 548 1082 532 1128 532C1174 532 1212 542 1248 560" stroke="#A6C3CF" stroke-width="5" stroke-linecap="round" stroke-opacity="0.8"/>
      <path d="M930 564C970 580 1006 604 1042 614C1082 624 1128 624 1170 620C1212 616 1254 604 1300 606" stroke="#A7C9D5" stroke-width="3.6" stroke-linecap="round" stroke-opacity="0.6"/>
      <path d="M1182 694C1218 706 1246 724 1282 732C1322 740 1364 736 1400 746" stroke="#B6D2DB" stroke-width="3" stroke-linecap="round" stroke-opacity="0.46"/>
      <path d="M1150 548C1166 530 1188 524 1212 528C1248 534 1264 554 1272 578C1280 602 1278 628 1264 650C1248 674 1224 690 1190 688C1164 686 1144 668 1136 644C1128 614 1128 574 1150 548Z" fill="#89AABA" fill-opacity="0.34"/>
      <path d="M1318 548C1330 540 1350 538 1364 544C1382 550 1392 566 1390 586C1388 604 1370 618 1350 618C1332 618 1316 606 1310 592C1304 578 1306 560 1318 548Z" fill="#89AABA" fill-opacity="0.26"/>
    </g>

    <g opacity="0.36" stroke-linecap="round">
      <path d="M344 204C428 216 494 220 566 212C674 202 748 178 852 182C958 186 1052 220 1150 224C1238 228 1310 214 1400 184" stroke="#E4CD8A" stroke-width="7"/>
      <path d="M224 628C338 598 450 600 554 634C654 668 744 718 850 720C960 722 1066 678 1170 678C1262 678 1342 700 1418 736" stroke="#F6E6BC" stroke-opacity="0.18" stroke-width="2"/>
      <path d="M214 328C324 294 420 298 532 324C650 348 746 382 874 374C986 366 1082 316 1198 312C1302 310 1388 344 1454 388" stroke="#F6E6BC" stroke-opacity="0.16" stroke-width="2"/>
    </g>

    <g opacity="0.32" stroke="#F9EAC5" stroke-width="1.4" stroke-linecap="round">
      <path d="M194 534C292 490 388 490 488 522C596 556 696 612 816 614C948 614 1046 554 1168 554C1272 554 1362 592 1456 640"/>
      <path d="M188 404C286 370 384 372 484 400C598 432 706 490 826 488C952 486 1052 426 1178 424C1294 422 1388 456 1478 510"/>
    </g>
  </g>

  <g opacity="0.38">
    <path d="M1414 198C1450 274 1452 364 1414 452" stroke="#C8DCE8" stroke-opacity="0.22" stroke-width="3.2" stroke-linecap="round"/>
    <path d="M1428 224C1454 292 1454 360 1428 434" stroke="#C8DCE8" stroke-opacity="0.12" stroke-width="2" stroke-linecap="round"/>
  </g>

  <g font-family="'Noto Serif KR', serif" fill="#F4E3BF" text-anchor="middle">
    <text x="942" y="122" font-size="40" opacity="0.56">하북</text>
    <text x="440" y="256" font-size="34" opacity="0.54">관중</text>
    <text x="790" y="286" font-size="42" opacity="0.58">중원</text>
    <text x="832" y="516" font-size="36" opacity="0.56">형주</text>
    <text x="1260" y="514" font-size="34" opacity="0.52">강동</text>
    <text x="278" y="530" font-size="40" opacity="0.56">익주</text>
    <text x="844" y="768" font-size="28" opacity="0.46">남중</text>
  </g>

  <g font-family="'Noto Serif KR', serif" fill="#FFF1CF" opacity="0.42">
    <text x="840" y="194" font-size="21">황하</text>
    <text x="1018" y="554" font-size="20">장강</text>
    <text x="704" y="242" font-size="16">태행산</text>
    <text x="568" y="420" font-size="16">진령</text>
    <text x="320" y="488" font-size="16">촉도</text>
  </g>

  <g transform="translate(1342 164)" opacity="0.74">
    <circle cx="0" cy="0" r="66" fill="rgba(15,10,7,0.22)"/>
    <circle cx="0" cy="0" r="60" stroke="#F3DEB2" stroke-opacity="0.44" stroke-width="2"/>
    <circle cx="0" cy="0" r="36" stroke="#F3DEB2" stroke-opacity="0.24" stroke-width="1.4"/>
    <path d="M0-54L10-12L0-20L-10-12L0-54Z" fill="#F1D095"/>
    <path d="M54 0L12 10L20 0L12-10L54 0Z" fill="#D4B377" opacity="0.72"/>
    <path d="M0 54L-10 12L0 20L10 12L0 54Z" fill="#8E6D3E" opacity="0.74"/>
    <path d="M-54 0L-12-10L-20 0L-12 10L-54 0Z" fill="#D4B377" opacity="0.72"/>
    <path d="M0-30V30M-30 0H30" stroke="#F6E7C1" stroke-opacity="0.4" stroke-width="1.2"/>
    <text x="0" y="-72" font-family="'Noto Serif KR', serif" font-size="16" text-anchor="middle" fill="#F8E7C1">北</text>
    <text x="72" y="6" font-family="'Noto Serif KR', serif" font-size="16" text-anchor="middle" fill="#F8E7C1">東</text>
    <text x="0" y="88" font-family="'Noto Serif KR', serif" font-size="16" text-anchor="middle" fill="#F8E7C1">南</text>
    <text x="-72" y="6" font-family="'Noto Serif KR', serif" font-size="16" text-anchor="middle" fill="#F8E7C1">西</text>
  </g>

  <g opacity="0.18">
    <circle cx="198" cy="210" r="2" fill="#FFF6E0"/>
    <circle cx="260" cy="170" r="2" fill="#FFF6E0"/>
    <circle cx="336" cy="140" r="2" fill="#FFF6E0"/>
    <circle cx="1312" cy="734" r="2" fill="#FFF6E0"/>
    <circle cx="1382" cy="782" r="2" fill="#FFF6E0"/>
    <circle cx="1240" cy="770" r="2" fill="#FFF6E0"/>
  </g>

  <g stroke="#E2C48A" stroke-opacity="0.34">
    <path d="M42 42H1558V858H42V42Z" stroke-width="2"/>
    <path d="M72 72H1528V828H72V72Z" stroke-width="1"/>
  </g>

  <g stroke="#E3C27D" stroke-opacity="0.42" stroke-width="4">
    <path d="M70 72L120 72L138 90"/>
    <path d="M1530 72L1480 72L1462 90"/>
    <path d="M70 828L120 828L138 810"/>
    <path d="M1530 828L1480 828L1462 810"/>
  </g>
</svg>
